<svg width="54" height="54" viewBox="0 0 54 54" fill="none" xmlns="http://www.w3.org/2000/svg">
<path d="M45.2155 19.5739V34.3008C45.2155 36.2516 44.1736 38.0554 42.4856 39.0319L29.7313 46.3941C28.0411 47.3706 25.9591 47.3706 24.2692 46.3941L11.5168 39.0319C9.82673 38.0554 8.78467 36.2516 8.78467 34.3008V19.5739C8.78467 17.6234 9.82673 15.8194 11.5168 14.8452L24.2692 7.48067C25.9591 6.50644 28.0411 6.50644 29.7313 7.48067L42.4856 14.8452C44.1736 15.8194 45.2155 17.6234 45.2155 19.5739Z" stroke="#835FF8" stroke-width="3.375" stroke-linecap="round" stroke-linejoin="round"/>
<path d="M27 47.2501V26.9385" stroke="#835FF8" stroke-width="3.375" stroke-linecap="round" stroke-linejoin="round"/>
<path d="M9.50977 16.8398L27.0018 26.9563L44.4915 16.8398" stroke="#835FF8" stroke-width="3.375" stroke-linecap="round" stroke-linejoin="round"/>
<path d="M45.1383 26.9385L36.0703 32.1772V42.6351" stroke="#835FF8" stroke-width="3.375" stroke-linecap="round" stroke-linejoin="round"/>
<path d="M17.9341 11.2412L27.0018 16.48L36.0698 11.2412" stroke="#835FF8" stroke-width="3.375" stroke-linecap="round" stroke-linejoin="round"/>
<path d="M17.9316 42.6351V32.1772L8.86377 26.9385" stroke="#835FF8" stroke-width="3.375" stroke-linecap="round" stroke-linejoin="round"/>
</svg>
